<?xml version="1.0" encoding="UTF-8"?>
<svg version="1.1" xmlns="http://www.w3.org/2000/svg" width="152" height="156">
<path d="M0 0 C1.4011454 -0.01139665 2.80225179 -0.03164739 4.203125 -0.06152344 C15.65096257 -0.30544237 28.2963392 0.37317784 37.31860352 8.29516602 C45.16113632 17.16654594 47.44083193 25.96631122 47.45141602 37.68969727 C47.45237274 38.36312668 47.45332947 39.03655609 47.45431519 39.73039246 C47.45499038 41.13959854 47.45318263 42.54880785 47.44897461 43.95800781 C47.44357447 46.11929195 47.44896341 48.28037226 47.45532227 50.44165039 C47.45466219 51.81599981 47.45338249 53.1903491 47.45141602 54.56469727 C47.45028809 55.80840088 47.44916016 57.05210449 47.44799805 58.33349609 C47.31860352 61.29516602 47.31860352 61.29516602 46.31860352 63.29516602 C26.18860352 63.29516602 6.05860352 63.29516602 -14.68139648 63.29516602 C-14.68139648 42.83516602 -14.68139648 22.37516602 -14.68139648 1.29516602 C-10.40299429 -0.84403508 -4.7477319 0.02678012 0 0 Z " fill="#08A0C3" transform="translate(14.681396484375,90.704833984375)"/>
<path d="M0 0 C20.13 0 40.26 0 61 0 C62.52981427 39.77517107 62.52981427 39.77517107 56 50 C55.443125 50.9075 54.88625 51.815 54.3125 52.75 C43.26455244 63.49935439 30.39763102 63.28545513 15.9375 63.125 C10.678125 63.08375 5.41875 63.0425 0 63 C0 42.21 0 21.42 0 0 Z " fill="#C9D304" transform="translate(0,0)"/>
<path d="M0 0 C0 20.79 0 41.58 0 63 C-20.13 63 -40.26 63 -61 63 C-61.103125 56.9775 -61.20625 50.955 -61.3125 44.75 C-61.35802002 42.87538086 -61.40354004 41.00076172 -61.45043945 39.06933594 C-61.60030739 28.55415142 -61.18524136 18.82548068 -53.82104492 10.55200195 C-51.6605671 8.47409646 -49.44891486 6.72546633 -47 5 C-46.39542969 4.55785156 -45.79085937 4.11570312 -45.16796875 3.66015625 C-33.31862974 -3.59401426 -11.49267576 0 0 0 Z " fill="#C9D301" transform="translate(152,91)"/>
<path d="M0 0 C1.06367294 0.00222061 2.12734589 0.00444122 3.22325134 0.00672913 C5.05031616 0.0069104 5.05031616 0.0069104 6.91429138 0.00709534 C8.20468323 0.0122113 9.49507507 0.01732727 10.8245697 0.02259827 C12.00305481 0.02360535 13.18153992 0.02461243 14.39573669 0.02565002 C18.81863878 0.03090136 23.24152704 0.04486247 27.66441345 0.05775452 C37.54378845 0.07837952 47.42316345 0.09900452 57.60191345 0.12025452 C57.60191345 20.58025452 57.60191345 41.04025452 57.60191345 62.12025452 C45.60908748 66.11786317 26.1695743 64.82463952 14.2776947 60.50306702 C5.29082563 55.85875804 0.23992087 48.98594867 -2.94447327 39.49110413 C-3.61805899 35.97054925 -3.54036338 32.4603577 -3.53089905 28.88978577 C-3.53185577 28.09875961 -3.5328125 27.30773346 -3.53379822 26.49273682 C-3.53447721 24.82601339 -3.53264255 23.15928728 -3.52845764 21.49256897 C-3.52308403 18.93155554 -3.52842303 16.37071579 -3.5348053 13.80970764 C-3.53414489 12.19056663 -3.53286449 10.57142572 -3.53089905 8.95228577 C-3.53292328 8.18253922 -3.53494751 7.41279266 -3.53703308 6.61972046 C-3.50833431 0.17592903 -3.50833431 0.17592903 0 0 Z " fill="#019EC2" transform="translate(94.39808654785156,-0.1202545166015625)"/>
<path d="M0 0 C20.13 0 40.26 0 61 0 C62.43474491 37.30336754 62.43474491 37.30336754 59 45 C58.67 45 58.34 45 58 45 C58.33 31.14 58.66 17.28 59 3 C39.53 3 20.06 3 0 3 C0 2.01 0 1.02 0 0 Z " fill="#D2D940" transform="translate(0,0)"/>
<path d="M0 0 C0.33 0 0.66 0 1 0 C0.67 13.53 0.34 27.06 0 41 C19.47 41 38.94 41 59 41 C59 41.99 59 42.98 59 44 C38.87 44 18.74 44 -2 44 C-2.04125 37.85375 -2.0825 31.7075 -2.125 25.375 C-2.14320801 23.44575684 -2.16141602 21.51651367 -2.18017578 19.52880859 C-2.1860216 17.98535439 -2.19111695 16.44189708 -2.1953125 14.8984375 C-2.20554443 14.10864502 -2.21577637 13.31885254 -2.22631836 12.50512695 C-2.22775202 7.9331683 -1.74092691 4.30713751 0 0 Z " fill="#D4DC53" transform="translate(93,110)"/>
<path d="M0 0 C1.06367294 0.00222061 2.12734589 0.00444122 3.22325134 0.00672913 C5.02500572 0.00684242 5.02500572 0.00684242 6.86315918 0.00695801 C8.17042465 0.01211929 9.47769012 0.01728058 10.8245697 0.02259827 C12.16835477 0.02446253 13.51214052 0.02588639 14.85592651 0.02688599 C18.39873622 0.0307105 21.94150515 0.0405402 25.48429871 0.05158997 C29.09706572 0.06180552 32.7098393 0.06638392 36.32261658 0.07142639 C43.41573225 0.08216254 50.50882019 0.09923816 57.60191345 0.12025452 C57.60191345 0.78025452 57.60191345 1.44025452 57.60191345 2.12025452 C38.13191345 2.45025452 18.66191345 2.78025452 -1.39808655 3.12025452 C-1.39808655 14.34025452 -1.39808655 25.56025452 -1.39808655 37.12025452 C-2.05808655 37.12025452 -2.71808655 37.12025452 -3.39808655 37.12025452 C-3.42273665 32.01161556 -3.44092262 26.90301093 -3.45301819 21.79432678 C-3.45805859 20.05506284 -3.46489085 18.31580316 -3.473526 16.57655334 C-3.48560447 14.08199515 -3.49131763 11.58749278 -3.4957428 9.09291077 C-3.50090408 8.310616 -3.50606537 7.52832123 -3.51138306 6.72232056 C-3.51157881 4.85458337 -3.46008349 2.98696248 -3.39808655 1.12025452 C-2.39808655 0.12025452 -2.39808655 0.12025452 0 0 Z " fill="#53BCD1" transform="translate(94.39808654785156,-0.1202545166015625)"/>
<path d="M0 0 C6.75 0.75 6.75 0.75 9 3 C11.9366021 3.2459409 14.78562112 3.37375252 17.7265625 3.4140625 C19.02078629 3.44311172 19.02078629 3.44311172 20.34115601 3.4727478 C23.10233616 3.53262204 25.86355784 3.57895998 28.625 3.625 C30.49481005 3.66317259 32.36460238 3.70222389 34.234375 3.7421875 C38.82277309 3.83832992 43.41125351 3.92233166 48 4 C48 4.66 48 5.32 48 6 C35.48814219 10.17061927 16.65103869 8.2845249 4.23828125 4.16796875 C2 3 2 3 0 0 Z " fill="#5CBAD0" transform="translate(104,56)"/>
<path d="M0 0 C5.56761653 8.35142479 2.98962596 21.60319343 2 31.125 C1.90460937 32.08148438 1.80921875 33.03796875 1.7109375 34.0234375 C1.4783375 36.34943754 1.24130321 38.67488959 1 41 C0.67 41 0.34 41 0 41 C0 27.47 0 13.94 0 0 Z " fill="#45ADC4" transform="translate(59,111)"/>
<path d="M0 0 C0 0.66 0 1.32 0 2 C-0.99330322 2.01981934 -1.98660645 2.03963867 -3.01000977 2.06005859 C-6.72086494 2.13654883 -10.43135003 2.22519658 -14.1418457 2.31738281 C-15.74300796 2.35549419 -17.34425063 2.39037713 -18.94555664 2.421875 C-21.25696414 2.46791611 -23.56782644 2.52584208 -25.87890625 2.5859375 C-26.9402755 2.60326431 -26.9402755 2.60326431 -28.02308655 2.62094116 C-32.64023487 2.75581977 -36.59512694 3.66838167 -41 5 C-43.4375 4.625 -43.4375 4.625 -45 4 C-32.45899919 -3.02371367 -14.00930527 -0.11313267 0 0 Z " fill="#D7DE5F" transform="translate(152,91)"/>
<path d="M0 0 C4.75286041 4.29290618 4.75286041 4.29290618 5 8 C4.34 8.66 3.68 9.32 3 10 C3 9.01 3 8.02 3 7 C2.34 7 1.68 7 1 7 C0.67 4.69 0.34 2.38 0 0 Z " fill="#44AFC7" transform="translate(54,103)"/>
<path d="M0 0 C0.99 0 1.98 0 3 0 C1.6302836 3.99500618 -0.25722422 6.80009492 -3 10 C-3.66 9.67 -4.32 9.34 -5 9 C-4.360625 8.071875 -3.72125 7.14375 -3.0625 6.1875 C-0.91377907 3.15780057 -0.91377907 3.15780057 0 0 Z " fill="#DFE47C" transform="translate(55,45)"/>
<path d="M0 0 C6.52307692 0.49230769 6.52307692 0.49230769 8.9375 3.0625 C9.288125 3.701875 9.63875 4.34125 10 5 C8.51800098 4.55090939 7.03944764 4.09043436 5.5625 3.625 C4.73878906 3.36976562 3.91507812 3.11453125 3.06640625 2.8515625 C1 2 1 2 0 0 Z " fill="#67C0D1" transform="translate(104,56)"/>
<path d="M0 0 C-0.99 0 -1.98 0 -3 0 C-3 0.66 -3 1.32 -3 2 C-5.31 2.33 -7.62 2.66 -10 3 C-6.81859267 -0.48439851 -4.56758339 -1.41752588 0 0 Z " fill="#E0E683" transform="translate(117,93)"/>
</svg>
